HIERARCHY
ROOT Hips
{
	OFFSET 0.000000 103.266502 0.000000
	CHANNELS 6 Xposition Yposition Zposition Xrotation Yrotation Zrotation 
	JOINT Spine
	{
		OFFSET -0.002400 12.777504 0.315300
		CHANNELS 3 Xrotation Yrotation Zrotation
		JOINT Spine1
		{
			OFFSET -0.002067 5.816869 0.032633
			CHANNELS 3 Xrotation Yrotation Zrotation
			JOINT Spine1_split
			{
				OFFSET -0.002067 5.816869 0.032633
				CHANNELS 3 Xrotation Yrotation Zrotation
				JOINT Spine2
				{
					OFFSET -0.002067 5.816869 0.032633
					CHANNELS 3 Xrotation Yrotation Zrotation
					JOINT Neck
					{
						OFFSET -0.003700 21.199493 -0.826900
						CHANNELS 3 Xrotation Yrotation Zrotation
						JOINT Head
						{
							OFFSET 0.000000 20.442200 4.834800
							CHANNELS 3 Xrotation Yrotation Zrotation
							JOINT HeadTop_End
							{
								OFFSET 0.000000 34.668396 4.968400
								CHANNELS 3 Xrotation Yrotation Zrotation
								End Site
								{
									OFFSET 0.000000 0.000000 0.000000
								}
							}
						}
					}
					JOINT LeftShoulder
					{
						OFFSET 3.288150 8.794197 -1.372250
						CHANNELS 3 Xrotation Yrotation Zrotation
						JOINT LeftShoulder_split
						{
							OFFSET 3.288150 8.794197 -1.372250
							CHANNELS 3 Xrotation Yrotation Zrotation
							JOINT LeftArm
							{
								OFFSET 11.953299 -2.279007 -0.146200
								CHANNELS 3 Xrotation Yrotation Zrotation
								JOINT LeftForeArm
								{
									OFFSET 18.448900 0.000000 0.000000
									CHANNELS 3 Xrotation Yrotation Zrotation
									JOINT LeftHand
									{
										OFFSET 29.527798 0.000000 0.000000
										CHANNELS 3 Xrotation Yrotation Zrotation
										JOINT LeftHandThumb1
										{
											OFFSET 10.739754 -2.369614 9.225399
											CHANNELS 3 Xrotation Yrotation Zrotation
											JOINT LeftHandThumb2
											{
												OFFSET 4.926170 -2.844131 2.844125
												CHANNELS 3 Xrotation Yrotation Zrotation
												JOINT LeftHandThumb3
												{
													OFFSET 4.614891 -2.664413 2.664409
													CHANNELS 3 Xrotation Yrotation Zrotation
													JOINT LeftHandThumb4
													{
														OFFSET 4.432465 -2.559082 2.559083
														CHANNELS 3 Xrotation Yrotation Zrotation
														End Site
														{
															OFFSET 0.000000 0.000000 0.000000
														}
													}
												}
											}
										}
										JOINT LeftHandIndex1
										{
											OFFSET 26.467674 0.187653 6.405298
											CHANNELS 3 Xrotation Yrotation Zrotation
											JOINT LeftHandIndex2
											{
												OFFSET 8.792900 0.000000 0.000000
												CHANNELS 3 Xrotation Yrotation Zrotation
												JOINT LeftHandIndex3
												{
													OFFSET 10.075203 0.000000 0.000000
													CHANNELS 3 Xrotation Yrotation Zrotation
													End Site
													{
														OFFSET 0.000000 0.000000 0.000000
													}
												}
											}
										}
										JOINT LeftHandMiddle1
										{
											OFFSET 25.764404 0.000000 0.000000
											CHANNELS 3 Xrotation Yrotation Zrotation
											JOINT LeftHandMiddle2
											{
												OFFSET 9.393974 0.000000 0.000000
												CHANNELS 3 Xrotation Yrotation Zrotation
												JOINT LeftHandMiddle3
												{
													OFFSET 10.771950 0.000000 0.000000
													CHANNELS 3 Xrotation Yrotation Zrotation
													End Site
													{
														OFFSET 0.000000 0.000000 0.000000
													}
												}
											}
										}
										JOINT LeftHandRing1
										{
											OFFSET 24.660927 0.144547 -6.225808
											CHANNELS 3 Xrotation Yrotation Zrotation
											JOINT LeftHandRing2
											{
												OFFSET 9.393799 0.000000 0.000000
												CHANNELS 3 Xrotation Yrotation Zrotation
												JOINT LeftHandRing3
												{
													OFFSET 9.928497 0.000000 0.000000
													CHANNELS 3 Xrotation Yrotation Zrotation
													End Site
													{
														OFFSET 0.000000 0.000000 0.000000
													}
												}
											}
										}
										JOINT LeftHandPinky1
										{
											OFFSET 23.655350 0.125290 -12.815412
											CHANNELS 3 Xrotation Yrotation Zrotation
											JOINT LeftHandPinky2
											{
												OFFSET 8.425102 0.000000 0.000000
												CHANNELS 3 Xrotation Yrotation Zrotation
												JOINT LeftHandPinky3
												{
													OFFSET 8.147003 0.000000 0.000000
													CHANNELS 3 Xrotation Yrotation Zrotation
													End Site
													{
														OFFSET 0.000000 0.000000 0.000000
													}
												}
											}
										}
									}
								}
							}
						}
					}
					JOINT RightShoulder
					{
						OFFSET -3.249400 8.794197 -1.372250
						CHANNELS 3 Xrotation Yrotation Zrotation
						JOINT RightShoulder_split
						{
							OFFSET -3.249400 8.794197 -1.372250
							CHANNELS 3 Xrotation Yrotation Zrotation
							JOINT RightArm
							{
								OFFSET -11.953299 -2.279007 -0.146200
								CHANNELS 3 Xrotation Yrotation Zrotation
								JOINT RightForeArm
								{
									OFFSET -18.448900 0.000000 0.000000
									CHANNELS 3 Xrotation Yrotation Zrotation
									JOINT RightHand
									{
										OFFSET -29.527802 0.000000 0.000000
										CHANNELS 3 Xrotation Yrotation Zrotation
										JOINT RightHandThumb1
										{
											OFFSET -10.739754 -2.369614 9.225399
											CHANNELS 3 Xrotation Yrotation Zrotation
											JOINT RightHandThumb2
											{
												OFFSET -4.926170 -2.844131 2.844125
												CHANNELS 3 Xrotation Yrotation Zrotation
												JOINT RightHandThumb3
												{
													OFFSET -4.614891 -2.664413 2.664409
													CHANNELS 3 Xrotation Yrotation Zrotation
													JOINT RightHandThumb4
													{
														OFFSET -4.432465 -2.559082 2.559083
														CHANNELS 3 Xrotation Yrotation Zrotation
														End Site
														{
															OFFSET 0.000000 0.000000 0.000000
														}
													}
												}
											}
										}
										JOINT RightHandIndex1
										{
											OFFSET -26.467674 0.187653 6.405298
											CHANNELS 3 Xrotation Yrotation Zrotation
											JOINT RightHandIndex2
											{
												OFFSET -8.792900 0.000000 0.000000
												CHANNELS 3 Xrotation Yrotation Zrotation
												JOINT RightHandIndex3
												{
													OFFSET -10.075203 0.000000 0.000000
													CHANNELS 3 Xrotation Yrotation Zrotation
													End Site
													{
														OFFSET 0.000000 0.000000 0.000000
													}
												}
											}
										}
										JOINT RightHandMiddle1
										{
											OFFSET -25.764404 0.000000 0.000000
											CHANNELS 3 Xrotation Yrotation Zrotation
											JOINT RightHandMiddle2
											{
												OFFSET -9.393974 0.000000 0.000000
												CHANNELS 3 Xrotation Yrotation Zrotation
												JOINT RightHandMiddle3
												{
													OFFSET -10.771950 0.000000 0.000000
													CHANNELS 3 Xrotation Yrotation Zrotation
													End Site
													{
														OFFSET 0.000000 0.000000 0.000000
													}
												}
											}
										}
										JOINT RightHandRing1
										{
											OFFSET -24.660927 0.144547 -6.225808
											CHANNELS 3 Xrotation Yrotation Zrotation
											JOINT RightHandRing2
											{
												OFFSET -9.393799 0.000000 0.000000
												CHANNELS 3 Xrotation Yrotation Zrotation
												JOINT RightHandRing3
												{
													OFFSET -9.928497 0.000000 0.000000
													CHANNELS 3 Xrotation Yrotation Zrotation
													End Site
													{
														OFFSET 0.000000 0.000000 0.000000
													}
												}
											}
										}
										JOINT RightHandPinky1
										{
											OFFSET -23.655350 0.125290 -12.815412
											CHANNELS 3 Xrotation Yrotation Zrotation
											JOINT RightHandPinky2
											{
												OFFSET -8.425102 0.000000 0.000000
												CHANNELS 3 Xrotation Yrotation Zrotation
												JOINT RightHandPinky3
												{
													OFFSET -8.147003 0.000000 0.000000
													CHANNELS 3 Xrotation Yrotation Zrotation
													End Site
													{
														OFFSET 0.000000 0.000000 0.000000
													}
												}
											}
										}
									}
								}
							}
						}
					}
				}
			}
		}
	}
	JOINT LeftUpLeg
	{
		OFFSET 11.394100 -6.187798 -0.413800
		CHANNELS 3 Xrotation Yrotation Zrotation
		JOINT LeftLeg
		{
			OFFSET 0.430247 -32.302673 3.732800
			CHANNELS 3 Xrotation Yrotation Zrotation
			JOINT LeftFoot
			{
				OFFSET -0.430247 -48.264931 -6.423300
				CHANNELS 3 Xrotation Yrotation Zrotation
				JOINT LeftToeBase
				{
					OFFSET 4.230900 -16.068199 23.438400
					CHANNELS 3 Xrotation Yrotation Zrotation
					JOINT LeftToe_End
					{
						OFFSET 4.510700 0.695400 19.974600
						CHANNELS 3 Xrotation Yrotation Zrotation
						End Site
						{
							OFFSET 0.000000 0.000000 0.000000
						}
					}
				}
			}
		}
	}
	JOINT RightUpLeg
	{
		OFFSET -11.333700 -6.187798 -0.413800
		CHANNELS 3 Xrotation Yrotation Zrotation
		JOINT RightLeg
		{
			OFFSET -0.430392 -32.302628 3.733000
			CHANNELS 3 Xrotation Yrotation Zrotation
			JOINT RightFoot
			{
				OFFSET 0.430392 -48.264973 -6.423500
				CHANNELS 3 Xrotation Yrotation Zrotation
				JOINT RightToeBase
				{
					OFFSET -4.230900 -16.068199 23.438400
					CHANNELS 3 Xrotation Yrotation Zrotation
					JOINT RightToe_End
					{
						OFFSET -4.510700 0.695400 19.974600
						CHANNELS 3 Xrotation Yrotation Zrotation
						End Site
						{
							OFFSET 0.000000 0.000000 0.000000
						}
					}
				}
			}
		}
	}
}
MOTION
Frames: 5
Frame Time: 0.016667
-0.100066 100.007668 1.004096 -2.728582 3.563249 0.722784 -0.566155 -0.760370 -3.852800 1.149532 -0.103991 1.499583 0.000000 0.000000 0.000000 1.152620 -0.098084 1.497723 8.457851 0.270831 0.379498 -3.010869 1.242466 1.518414 0.000001 0.000000 -0.000000 6.883882 -26.760615 -3.764301 0.000000 0.000000 0.000000 5.911088 4.517228 -79.896370 0.000002 -18.872940 -0.000007 -18.698681 1.922927 7.511071 -1.708915 11.916056 7.382928 4.613910 16.205063 1.361353 0.155761 9.814993 3.327241 0.000002 0.000000 0.000002 0.412192 2.350819 -19.887633 0.808848 3.242975 -28.002748 0.000000 -0.000000 0.000000 0.585505 2.783221 -23.755710 0.716286 3.062838 -26.319962 0.000000 0.000000 -0.000002 0.650669 2.926632 -25.063982 1.383128 4.144252 -36.899066 0.000000 0.000000 0.000005 2.588335 6.753843 -26.641482 1.376458 0.049913 -37.011149 0.000000 0.000000 0.000002 0.447593 -3.990809 8.744686 0.000000 0.000000 0.000000 8.902104 19.263654 69.814102 0.000000 13.419894 -0.000014 -28.538474 -11.177663 5.826638 -2.036768 -12.208783 -7.947288 5.412852 -17.299273 -0.815958 -0.502633 -8.507745 -2.994126 -0.000000 -0.000002 -0.000000 0.402313 -2.335093 19.548582 0.985293 -3.573152 30.823462 -0.000000 0.000000 -0.000002 0.542484 -2.697159 22.740623 1.054146 -3.685870 31.911105 -0.000000 -0.000000 0.000001 0.533148 -2.674804 22.541429 1.506292 -4.326612 38.375845 -0.000000 -0.000000 0.000001 0.306499 -2.045507 17.041969 1.637528 -4.486876 40.083696 -0.000000 0.000000 -0.000001 -4.240505 11.466988 5.366419 18.070095 -4.103027 0.952604 -11.353264 0.769237 -4.620346 -0.000025 -0.000002 0.000001 -0.000000 -0.000000 -0.000000 -0.635243 -4.520307 -5.540821 18.152534 -9.286933 4.292960 -12.830294 -19.093946 3.025085 -0.007143 -0.000012 -0.000001 0.000000 0.000000 -0.000000 
-0.106636 100.005203 1.020484 -2.714884 3.551737 0.718016 -0.565300 -0.765014 -3.853445 1.145595 -0.104598 1.502204 0.000000 0.000000 0.000000 1.148703 -0.098714 1.500344 8.441301 0.281180 0.369448 -3.009799 1.286437 1.518969 -0.000001 0.000000 0.000000 6.880136 -26.751008 -3.764938 0.000000 0.000000 0.000000 5.911935 4.505761 -79.903617 -0.000001 -18.867740 0.000010 -18.716265 1.935613 7.508155 -1.708915 11.916056 7.382927 4.613910 16.205063 1.361351 0.155763 9.814995 3.327240 -0.000001 -0.000005 0.000000 0.412528 2.351746 -19.895755 0.808926 3.243122 -28.004167 -0.000000 -0.000000 0.000003 0.585819 2.783937 -23.762214 0.716461 3.063193 -26.323228 -0.000000 0.000000 0.000002 0.650936 2.927205 -25.069260 1.383306 4.144493 -36.901542 0.000000 0.000000 -0.000000 2.588731 6.754094 -26.644865 1.376646 0.050164 -37.013717 -0.000000 0.000000 0.000000 0.447802 -3.989254 8.743095 0.000000 0.000000 0.000000 8.906558 19.272808 69.810312 -0.000004 13.433804 0.000021 -28.531155 -11.162471 5.826430 -2.036770 -12.208786 -7.947279 5.412854 -17.299276 -0.815975 -0.502633 -8.507746 -2.994127 -0.000000 -0.000001 -0.000000 0.402917 -2.336784 19.563325 0.985633 -3.573722 30.828926 -0.000000 0.000000 -0.000001 0.543006 -2.698407 22.751449 1.054456 -3.686370 31.915934 -0.000000 -0.000001 0.000006 0.533451 -2.675527 22.547858 1.506554 -4.326944 38.379321 -0.000000 0.000000 -0.000001 0.306653 -2.046011 17.046298 1.637641 -4.487011 40.085130 -0.000000 0.000000 0.000002 -4.244709 11.469555 5.376699 18.072993 -4.095964 0.951849 -11.365944 0.771115 -4.628618 -0.000075 -0.000003 -0.000004 0.000000 -0.000000 -0.000000 -0.637960 -4.521940 -5.537979 18.151508 -9.286205 4.300449 -12.841788 -19.081221 3.020140 -0.007447 0.000002 0.000001 0.000000 -0.000002 -0.000000 
-0.113822 100.002930 1.037701 -2.702047 3.540759 0.712857 -0.563490 -0.771767 -3.854193 1.142373 -0.105478 1.505871 0.000000 0.000000 0.000000 1.145511 -0.099612 1.504005 8.426178 0.289927 0.361756 -3.008405 1.323639 1.520888 -0.000000 -0.000000 0.000000 6.876203 -26.741154 -3.765900 0.000000 0.000000 0.000000 5.916046 4.497555 -79.909812 -0.000001 -18.862136 0.000010 -18.729888 1.945437 7.506024 -1.708915 11.916056 7.382930 4.613910 16.205063 1.361347 0.155761 9.814995 3.327239 -0.000000 -0.000003 -0.000001 0.412733 2.352314 -19.900788 0.808948 3.243161 -28.004471 -0.000000 0.000000 0.000000 0.586070 2.784504 -23.767334 0.716601 3.063470 -26.325825 0.000000 -0.000000 0.000003 0.651257 2.927888 -25.075530 1.383522 4.144783 -36.904509 0.000000 0.000000 -0.000002 2.589485 6.754573 -26.651268 1.377007 0.050639 -37.018645 -0.000000 -0.000000 0.000001 0.447137 -3.992707 8.741736 0.000000 0.000000 0.000000 8.916821 19.279768 69.800804 -0.000001 13.450140 0.000022 -28.539986 -11.159939 5.821334 -2.036769 -12.208777 -7.947310 5.412868 -17.299365 -0.815951 -0.502633 -8.507745 -2.994126 -0.000000 -0.000000 -0.000000 0.403551 -2.338564 19.578860 0.986001 -3.574340 30.834851 0.000000 0.000001 -0.000003 0.543657 -2.699945 22.764356 1.054833 -3.686968 31.921757 0.000001 -0.000000 0.000003 0.533915 -2.676647 22.557842 1.506951 -4.327446 38.384601 -0.000000 0.000000 -0.000000 0.307026 -2.047220 17.056676 1.638080 -4.487535 40.090799 0.000001 -0.000000 0.000002 -4.246618 11.473190 5.388087 18.073876 -4.090291 0.950772 -11.378262 0.773038 -4.637149 -0.000014 0.000003 0.000000 0.000000 0.000000 -0.000000 -0.637326 -4.523315 -5.533539 18.147898 -9.285623 4.307471 -12.853353 -19.070202 3.014791 -0.008595 -0.000014 -0.000000 -0.000000 -0.000000 0.000000 
-0.121267 100.000916 1.055781 -2.690757 3.530684 0.707983 -0.561166 -0.780204 -3.855310 1.140142 -0.106574 1.510630 0.000000 0.000000 0.000000 1.143316 -0.100721 1.508753 8.412554 0.297273 0.355597 -3.006518 1.354628 1.523624 -0.000000 0.000001 -0.000000 6.872127 -26.731021 -3.767448 0.000000 0.000000 0.000000 5.921147 4.490974 -79.912783 -0.000005 -18.857092 0.000000 -18.728874 1.952512 7.498989 -1.708915 11.916056 7.382930 4.613910 16.205063 1.361352 0.155761 9.814990 3.327237 0.000000 -0.000003 -0.000001 0.412752 2.352364 -19.901230 0.808883 3.243037 -28.003376 0.000000 -0.000000 -0.000003 0.586204 2.784807 -23.770117 0.716675 3.063625 -26.327224 0.000001 -0.000000 0.000003 0.651602 2.928625 -25.082268 1.383756 4.145091 -36.907771 0.000000 0.000001 0.000001 2.590595 6.755275 -26.660711 1.377530 0.051334 -37.025889 -0.000000 -0.000000 0.000000 0.445813 -3.999974 8.740760 0.000000 0.000000 0.000000 8.930330 19.284663 69.787417 -0.000008 13.466611 0.000002 -28.561266 -11.168561 5.813759 -2.036770 -12.208784 -7.947261 5.412865 -17.299512 -0.816012 -0.502634 -8.507747 -2.994126 0.000001 -0.000001 0.000000 0.404190 -2.340367 19.594587 0.986385 -3.574980 30.841005 0.000000 0.000000 -0.000002 0.544394 -2.701699 22.778703 1.055263 -3.687658 31.928447 0.000000 -0.000000 0.000003 0.534506 -2.678070 22.570507 1.507460 -4.328077 38.391295 -0.000001 -0.000000 -0.000001 0.307573 -2.049009 17.072053 1.638686 -4.488248 40.098473 -0.000000 0.000000 -0.000001 -4.245498 11.476951 5.398873 18.073200 -4.085158 0.950471 -11.390473 0.775064 -4.646178 -0.000046 0.000003 -0.000002 -0.000000 0.000000 -0.000000 -0.632895 -4.525056 -5.528175 18.142220 -9.285654 4.314078 -12.865192 -19.061306 3.009175 -0.011504 -0.000005 0.000001 -0.000000 -0.000002 -0.000000 
-0.128648 99.999191 1.074651 -2.680977 3.521355 0.703797 -0.559832 -0.789364 -3.856845 1.139017 -0.107763 1.516219 0.000000 0.000000 0.000000 1.142232 -0.101915 1.514326 8.400877 0.302968 0.350914 -3.003915 1.378162 1.526990 0.000000 0.000000 0.000000 6.868264 -26.720788 -3.769766 0.000000 0.000000 0.000000 5.924329 4.484678 -79.910071 -0.000001 -18.854211 -0.000012 -18.698642 1.956468 7.480604 -1.708915 11.916053 7.382931 4.613909 16.205063 1.361350 0.155762 9.814995 3.327241 -0.000000 -0.000003 0.000001 0.412563 2.351842 -19.896631 0.808732 3.242751 -28.000663 -0.000000 0.000000 0.000001 0.586193 2.784781 -23.769888 0.716673 3.063614 -26.327157 0.000000 -0.000000 -0.000000 0.651928 2.929324 -25.088675 1.383978 4.145385 -36.910834 0.000000 -0.000000 -0.000001 2.591941 6.756127 -26.672136 1.378176 0.052189 -37.034734 0.000001 -0.000000 0.000000 0.444131 -4.009370 8.740164 0.000000 0.000000 0.000000 8.941827 19.288166 69.773203 0.000003 13.479140 -0.000018 -28.575485 -11.177161 5.810622 -2.036762 -12.208783 -7.947268 5.412895 -17.299715 -0.815977 -0.502634 -8.507744 -2.994126 0.000000 0.000001 0.000000 0.404789 -2.342042 19.609200 0.986769 -3.575620 30.847149 0.000001 -0.000000 -0.000001 0.545179 -2.703566 22.793675 1.055733 -3.688412 31.935752 0.000000 -0.000001 0.000004 0.535182 -2.679687 22.584919 1.508027 -4.328797 38.398835 0.000000 0.000000 -0.000003 0.308236 -2.051158 17.090516 1.639371 -4.489058 40.107223 0.000000 0.000000 0.000001 -4.240482 11.479945 5.407380 18.069935 -4.079190 0.951997 -11.402206 0.777208 -4.656072 -0.000070 -0.000001 -0.000002 -0.000000 -0.000000 -0.000000 -0.624670 -4.527764 -5.522529 18.134256 -9.286808 4.320532 -12.877087 -19.053873 3.003303 -0.016677 0.000012 -0.000001 -0.000000 0.000002 -0.000000 
